name ./resultDataOpenSim/trcMotMarkerGrf/sub10/grf-04-01.mot
datacolumns 19
datarows 17
range 0.49200000 0.55600000
endheader

                time	     ground_force_vx	     ground_force_vy	     ground_force_vz	     ground_force_px	     ground_force_py	     ground_force_pz	   l_ground_force_vx	   l_ground_force_vy	   l_ground_force_vz	   l_ground_force_px	   l_ground_force_py	   l_ground_force_pz	     ground_torque_x	     ground_torque_y	     ground_torque_z	   l_ground_torque_x	   l_ground_torque_y	   l_ground_torque_z	
          0.49200000	        -14.15370567	        387.71365102	        -13.58338033	         -0.69465730	          0.00000000	          0.06037926	          0.00000000	          0.00000000	          0.00000000	          0.00000000	          0.00000000	          0.00000000	          0.00000000	          2.49245615	          0.00000000	          0.00000000	          0.00000000	          0.00000000	
          0.49600000	        -11.99931088	        384.22771532	        -13.27868091	         -0.69483999	          0.00000000	          0.06038036	          0.00000000	          0.00000000	          0.00000000	          0.00000000	          0.00000000	          0.00000000	          0.00000000	          2.64715328	          0.00000000	          0.00000000	          0.00000000	          0.00000000	
          0.50000000	         -9.04359439	        380.84945011	        -13.21413703	         -0.69520571	          0.00000000	          0.06041420	          0.00000000	          0.00000000	          0.00000000	          0.00000000	          0.00000000	          0.00000000	          0.00000000	          2.75924242	          0.00000000	          0.00000000	          0.00000000	          0.00000000	
          0.50400000	         -5.65894769	        377.66642271	        -13.42845988	         -0.69567606	          0.00000000	          0.06047346	          0.00000000	          0.00000000	          0.00000000	          0.00000000	          0.00000000	          0.00000000	          0.00000000	          2.82527107	          0.00000000	          0.00000000	          0.00000000	          0.00000000	
          0.50800000	         -2.20059032	        374.78876118	        -13.91617217	         -0.69617612	          0.00000000	          0.06055983	          0.00000000	          0.00000000	          0.00000000	          0.00000000	          0.00000000	          0.00000000	          0.00000000	          2.84718573	          0.00000000	          0.00000000	          0.00000000	          0.00000000	
          0.51200000	          1.10739185	        372.34506612	        -14.63146638	         -0.69668790	          0.00000000	          0.06067364	          0.00000000	          0.00000000	          0.00000000	          0.00000000	          0.00000000	          0.00000000	          0.00000000	          2.83196237	          0.00000000	          0.00000000	          0.00000000	          0.00000000	
          0.51600000	          4.23289336	        370.46380252	        -15.49789768	         -0.69722456	          0.00000000	          0.06081017	          0.00000000	          0.00000000	          0.00000000	          0.00000000	          0.00000000	          0.00000000	          0.00000000	          2.79069696	          0.00000000	          0.00000000	          0.00000000	          0.00000000	
          0.52000000	          7.32659729	        369.26584849	        -16.41774456	         -0.69783222	          0.00000000	          0.06095573	          0.00000000	          0.00000000	          0.00000000	          0.00000000	          0.00000000	          0.00000000	          0.00000000	          2.73716384	          0.00000000	          0.00000000	          0.00000000	          0.00000000	
          0.52400000	         10.65179142	        368.87927112	        -17.28597393	         -0.69856514	          0.00000000	          0.06109516	          0.00000000	          0.00000000	          0.00000000	          0.00000000	          0.00000000	          0.00000000	          0.00000000	          2.68602223	          0.00000000	          0.00000000	          0.00000000	          0.00000000	
          0.52800000	         14.48055029	        369.45724152	        -18.00941896	         -0.69946347	          0.00000000	          0.06121739	          0.00000000	          0.00000000	          0.00000000	          0.00000000	          0.00000000	          0.00000000	          0.00000000	          2.65106554	          0.00000000	          0.00000000	          0.00000000	          0.00000000	
          0.53200000	         18.98912959	        371.17837662	        -18.52550345	         -0.70052698	          0.00000000	          0.06131919	          0.00000000	          0.00000000	          0.00000000	          0.00000000	          0.00000000	          0.00000000	          0.00000000	          2.64392447	          0.00000000	          0.00000000	          0.00000000	          0.00000000	
          0.53600000	         24.18371721	        374.23068273	        -18.81625551	         -0.70171935	          0.00000000	          0.06139680	          0.00000000	          0.00000000	          0.00000000	          0.00000000	          0.00000000	          0.00000000	          0.00000000	          2.67336840	          0.00000000	          0.00000000	          0.00000000	          0.00000000	
          0.54000000	         29.88019283	        378.78991153	        -18.91420687	         -0.70298502	          0.00000000	          0.06144296	          0.00000000	          0.00000000	          0.00000000	          0.00000000	          0.00000000	          0.00000000	          0.00000000	          2.74499665	          0.00000000	          0.00000000	          0.00000000	          0.00000000	
          0.54400000	         35.74438289	        384.99193517	        -18.89639631	         -0.70425576	          0.00000000	          0.06144956	          0.00000000	          0.00000000	          0.00000000	          0.00000000	          0.00000000	          0.00000000	          0.00000000	          2.86097675	          0.00000000	          0.00000000	          0.00000000	          0.00000000	
          0.54800000	         41.38009769	        392.89689095	        -18.86765600	         -0.70545071	          0.00000000	          0.06141165	          0.00000000	          0.00000000	          0.00000000	          0.00000000	          0.00000000	          0.00000000	          0.00000000	          3.01969312	          0.00000000	          0.00000000	          0.00000000	          0.00000000	
          0.55200000	         46.43606817	        402.46305509	        -18.94035415	         -0.70649236	          0.00000000	          0.06133288	          0.00000000	          0.00000000	          0.00000000	          0.00000000	          0.00000000	          0.00000000	          0.00000000	          3.21554667	          0.00000000	          0.00000000	          0.00000000	          0.00000000	
          0.55600000	         50.69648165	        413.55455175	        -19.21682088	         -0.70732619	          0.00000000	          0.06122651	          0.00000000	          0.00000000	          0.00000000	          0.00000000	          0.00000000	          0.00000000	          0.00000000	          3.43937107	          0.00000000	          0.00000000	          0.00000000	          0.00000000	
